<?xml version="1.0" encoding="UTF-8" standalone="no"?>
<!-- Created with Inkscape (http://www.inkscape.org/) -->

<svg
   xmlns:dc="http://purl.org/dc/elements/1.1/"
   xmlns:cc="http://creativecommons.org/ns#"
   xmlns:rdf="http://www.w3.org/1999/02/22-rdf-syntax-ns#"
   xmlns:svg="http://www.w3.org/2000/svg"
   xmlns="http://www.w3.org/2000/svg"
   xmlns:sodipodi="http://sodipodi.sourceforge.net/DTD/sodipodi-0.dtd"
   xmlns:inkscape="http://www.inkscape.org/namespaces/inkscape"
   width="210mm"
   height="297mm"
   viewBox="0 0 210 297"
   version="1.1"
   id="svg8"
   inkscape:version="0.92.3 (2405546, 2018-03-11)"
   sodipodi:docname="logo2022.svg"
   inkscape:export-filename="C:\Users\Melvin\Desktop\Hubic\Projets\club robot enac\coupe 2018\General\image.png"
   inkscape:export-xdpi="600"
   inkscape:export-ydpi="600">
  <title
     id="title6524">Logo Prod 2022</title>
  <defs
     id="defs2" />
  <sodipodi:namedview
     id="base"
     pagecolor="#ffffff"
     bordercolor="#666666"
     borderopacity="1.0"
     inkscape:pageopacity="0.0"
     inkscape:pageshadow="2"
     inkscape:zoom="4"
     inkscape:cx="326.85987"
     inkscape:cy="683.1782"
     inkscape:document-units="mm"
     inkscape:current-layer="layer4"
     showgrid="false"
     inkscape:window-width="2560"
     inkscape:window-height="1377"
     inkscape:window-x="-8"
     inkscape:window-y="-8"
     inkscape:window-maximized="1"
     showguides="true"
     inkscape:snap-text-baseline="true"
     inkscape:guide-bbox="true">
    <sodipodi:guide
       position="-36.856467,215.15198"
       orientation="0,1"
       id="guide6435"
       inkscape:locked="false" />
    <sodipodi:guide
       position="44.340014,180.35348"
       orientation="1,0"
       id="guide6437"
       inkscape:locked="false" />
    <sodipodi:guide
       position="128.52992,144.99372"
       orientation="0,1"
       id="guide6439"
       inkscape:locked="false" />
    <sodipodi:guide
       position="142.74866,171.93449"
       orientation="1,0"
       id="guide6441"
       inkscape:locked="false" />
  </sodipodi:namedview>
  <metadata
     id="metadata5">
    <rdf:RDF>
      <cc:Work
         rdf:about="">
        <dc:format>image/svg+xml</dc:format>
        <dc:type
           rdf:resource="http://purl.org/dc/dcmitype/StillImage" />
        <dc:title>Logo Prod 2022</dc:title>
      </cc:Work>
    </rdf:RDF>
  </metadata>
  <g
     inkscape:groupmode="layer"
     id="layer4"
     inkscape:label="Engrenqge">
    <path
       style="fill:#1253ff;fill-opacity:1;stroke-width:0.64875424"
       d="M 387.10547 412.63281 C 379.09979 419.85345 370.14015 425.58325 360.2207 429.80664 C 349.56167 434.34789 338.42346 436.78626 326.86914 437.2793 C 319.06462 437.61662 311.32459 436.88359 303.67578 435.26172 C 291.97453 432.97098 290.06075 431.73682 281.30273 425.44727 C 279.92631 427.83132 279.17569 430.07786 277.4668 433.4043 C 284.35899 437.3835 279.24309 448.57694 270.69727 446.28711 C 267.41085 452.94856 262.61841 462.63716 256.40039 475.35156 C 258.94469 476.32377 260.08985 476.85592 263.14062 477.82812 C 265.35936 478.74285 266.08649 478.50213 267.35156 476.52344 C 267.70838 475.96547 268.0652 475.40701 268.46094 474.875 C 272.36644 469.65256 276.3053 464.45543 280.17188 459.20703 C 280.79468 458.3572 281.31391 458.20823 282.26758 458.55859 C 289.6504 461.2639 297.2273 463.23647 305.00586 464.38477 C 306.25796 464.56641 307.20387 464.82704 307.05469 466.37109 C 307.02872 466.5852 307.20474 466.81815 307.28906 467.04492 C 309.17027 472.02604 311.19062 477.21252 313.13086 482.16797 C 315.99701 482.23184 319.74965 482.47461 322.85547 482.47461 C 322.85547 484.6557 322.5 489.1703 322.5 492.32031 C 325.67627 491.9574 329.57146 492.1977 332.74609 491.83789 C 334.182 489.35085 335.61471 485.62623 336.99805 482.2832 C 336.99805 482.2832 338.86371 482.2832 341.25391 482.2832 C 342.77412 477.19282 343.99777 470.76352 345.82422 464.78125 C 345.94101 464.01571 346.21382 463.55348 347.03125 463.48242 C 347.44645 463.44349 347.84847 463.28936 348.26367 463.20508 C 355.31563 461.77782 362.18697 459.74706 368.86914 457.07422 C 370.19262 456.54221 370.18552 456.55399 371.11328 457.65039 C 373.56559 460.55681 376.05082 463.43871 378.4707 466.37109 C 381.15651 469.6343 384.04396 472.7217 386.53516 476.14062 C 387.48238 477.43814 388.57806 477.6196 390.21289 476.82812 C 396.18795 473.92171 402.14927 471.01573 408.11133 468.08984 C 409.90188 467.21401 410.35011 466.3384 409.98047 464.45703 C 408.29688 455.82996 405.91401 446.04356 404.04492 436.42969 C 403.72744 436.15072 403.77784 435.781 404.0957 435.48242 C 404.40064 435.19699 404.70558 434.90002 405.02344 434.62109 C 408.57464 431.4918 411.75968 429.1478 414.78516 425.53125 C 406.8678 421.50692 396.99611 416.27764 387.10547 412.63281 z M 380.33594 428.49414 A 8.5736694 8.8388344 0 0 1 388.9082 437.33398 A 8.5736694 8.8388344 0 0 1 380.33594 446.17188 A 8.5736694 8.8388344 0 0 1 371.76172 437.33398 A 8.5736694 8.8388344 0 0 1 380.33594 428.49414 z M 325.75977 444.05273 C 330.41781 444.13792 334.07693 447.91931 334.06445 452.72656 C 334.05148 457.46892 330.28077 461.4276 325.70703 461.38867 C 321.49014 461.34974 317.19027 458.3264 317.20312 452.67578 C 317.2161 447.12891 321.54933 443.97563 325.75977 444.05273 z "
       transform="scale(0.26458333)"
       id="path1779" />
  </g>
  <g
     inkscape:groupmode="layer"
     id="layer5"
     inkscape:label="Engrenqge 1">
    <path
       inkscape:connector-curvature="0"
       class="st3"
       d="m 116.32342,87.360889 c -78.199033,138.577171 -39.099519,69.288581 0,0 z"
       id="path1779-9"
       style="stroke-width:0.17164956"
       sodipodi:nodetypes="cc" />
  </g>
  <g
     inkscape:label="Calque 1"
     inkscape:groupmode="layer"
     id="layer1"
     style="display:inline">
    <path
       style="opacity:1;fill:#1253ff;fill-opacity:1;fill-rule:evenodd;stroke:none;stroke-width:0.99999994px;stroke-linecap:butt;stroke-linejoin:miter;stroke-opacity:1"
       d="m 359.08008,314.52539 c -17.15627,-0.0422 -39.47554,0.49001 -49.82031,1.95703 -6.94823,0.98535 -48.88868,13.07422 -48.88868,13.07422 l -32.90625,8.60352 -45.89843,10.34375 c 17.51171,-0.66093 0.30767,11.03963 -3.41797,14.64453 8.11053,-1.03528 -0.25264,7.81391 -2.44922,12.96289 6.21113,-1.3843 -0.39987,7.09992 -1.28125,11.79492 5.3197,-2.69991 2.60729,7.3453 2.24805,12.02148 l 4.50781,-1.42382 0.30859,11.79297 c 0,0 49.17452,-44.28761 52.96289,-41 3.60127,3.12515 -4.78906,9.49218 -4.78906,9.49218 l 3.08008,2.0586 -10.57227,10.90429 4.14063,1.49414 -13.71289,13.71875 2.8125,1.54493 -12.8125,13.63867 2.94336,1.64062 c -4.00272,5.13207 -8.30981,9.95967 -11.23438,16.16992 l 4.41211,-0.0898 c -5.03501,5.00039 -9.60543,10.24235 -12.13086,16.55469 l 4.31055,0.81836 c -4.51668,4.75321 -7.88053,11.67439 -9.4961,17.33008 l 5.83204,-0.37305 c -2.14362,9.37973 -4.38504,18.71835 -3.5254,27.72266 l 5.92188,-3.76954 c 0.86001,11.11027 2.18258,22.312 4.93555,33.80078 1.63029,-3.88834 3.46888,-7.15199 5.85742,-8.76562 3.1295,11.14832 4.75462,22.59752 9.58203,33.40625 l 75.18555,-148.14844 c 1.36947,-2.69847 3.05974,5.84131 3.30078,11.33985 5.70984,-2.94856 11.75019,0.74097 16.72461,3.67578 -5.18229,1.54858 -7.43078,4.49435 -8.85547,7.55078 9.04432,-2.42634 19.46751,-7.09574 35.12695,1.13672 1.03912,-2.68441 -11.30436,-12.31539 -18.9375,-13.26953 -14.37093,-1.79638 -15.86789,-28.60658 -15.8789,-32.53907 -0.0193,-6.8155 6.7207,11.79297 6.7207,11.79297 0,0 9.38799,-1.23517 11.14258,1.56641 1.12342,1.79376 -1.56641,6.1543 -1.56641,6.1543 9.71773,-2.29924 19.17732,-5.09739 34.07422,2.59179 -0.0754,-7.02584 -17.67971,-12.96662 -28.45508,-15.69336 -10.60161,-2.68274 -7.09961,-15.78711 -7.09961,-15.78711 l 15.1836,6.66602 0.25195,-4.52539 13.79687,11.10742 0.4336,-3.93555 c 3.764,2.56853 8.27271,6.13574 13.29687,6.98243 l 0.12696,-3.11915 c 4.13638,3.9549 7.66228,8.36748 13.20507,11.26758 l -0.125,-3.10937 c 5.82841,3.64278 9.56184,7.58326 17.76563,10.88672 l -0.2832,-4.64063 c 5.88003,4.27915 11.32029,9.43933 18.63281,10.85352 l -0.10547,-4.16602 c 6.81056,5.06015 14.59318,12.51974 22.12695,12.87891 l 0.12696,-3.31836 c 9.12045,4.46011 19.90018,8.21732 29.58593,9.50391 l -1.50781,-3.92188 c 9.6669,2.33488 19.33307,4.69718 29,5.17578 l -9.41211,-10.30664 c 12.26922,-0.9507 26.56927,-0.79364 35.02539,-3.82422 l -7.91406,-6.41601 c 12.29099,-1.80805 22.69518,-4.40179 30.41797,-8.11329 L 376.97266,342.06445 c 5.10444,-2.23569 23.75954,-6.68791 35.44531,-1.68164 -0.23547,-5.1518 -1.96349,-9.90514 -4.51758,-12.4707 -3.42055,-3.43593 -7.31113,-5.12655 -16.12695,-4.82031 -6.98997,0.24279 -8.25485,-7.59079 -11.0918,-7.94727 -2.87344,-0.36106 -11.3078,-0.59384 -21.60156,-0.61914 z m 15.66992,4.99414 c 3.61669,-0.0174 5.875,4 5.875,4 0,0 -2.82736,0.44745 -6.25,-1 -4.21815,-1.78387 -29.7019,11.08693 -45.875,10.75 -12,-0.25001 -12.25,-13 -12.25,-13 0,0 39.30691,-0.65828 58.5,-0.75 z m -70.00195,2.50195 c 0.4684,-0.0175 0.7677,0.0116 0.8457,0.0996 0.6082,0.68657 -0.89383,2.82772 -2.07227,3.28321 -1.98435,0.76698 -18.42024,3.75375 -19.39257,3.5 -1.89197,-0.49377 2.37693,-3.16028 4.14257,-3.77344 1.65052,-0.57318 13.19771,-2.98698 16.47657,-3.10938 z M 311,323.01953 c 0,0 4.80499,4.14003 5.5,10 l -55.25,111 c -9.24968,-10.32487 0.007,-23.43552 49.75,-121 z m 58.75,2.875 c 1.63172,0.62052 3.85713,1.72025 4.5,3 -2.22185,0.10923 -5.95965,0.67327 -7.875,-0.75 0.91667,-1.08384 2.45833,-1.83042 3.375,-2.25 z m 21.78711,1.53906 c 0.89025,0.006 1.79179,0.0348 2.71289,0.0859 7.52689,0.41777 13.875,7.5 13.875,7.5 -32.08272,-0.45623 -62.20989,8.80706 -92.5,14.625 0.16003,-4.0424 1.83998,-7.91593 5,-11.625 0,0 9.68496,2.78502 37.625,-7.375 5.49999,-1.99999 9.18817,2.26723 13.375,0.75 7.99971,-2.89893 13.68038,-4.0038 19.91211,-3.96094 z m -92.55664,3.67969 c 0.4943,0.008 0.80871,0.0526 0.88672,0.14063 0.6082,0.68657 -1.52665,5.0367 -2.70508,5.49218 -1.98436,0.76699 -22.65071,3.1229 -23.62305,2.86914 -1.89196,-0.49376 6.29295,-5.68566 8.0586,-6.29882 1.65051,-0.57318 13.92269,-2.262 17.38281,-2.20313 z m -43.72852,5.06641 c 0,0 -3.52604,4.34535 -6.25,7.95508 1.44292,-0.17835 3.30869,0.11199 5.11524,0.82031 -1.91839,2.60235 -7.12888,7.75796 -9.0918,9.4707 1.32007,0.32379 1.84388,0.48685 3.09375,1.26172 -1.96999,2.73204 -7.92766,10.14771 -12.12305,8.33398 -6.86004,-2.96568 -5.2078,-21.82699 -3.15625,-22.72851 5.44322,-2.39194 17.50866,-5.14881 22.41211,-5.11328 z m -29.16406,6.11328 c 0.50507,0 0.62471,1.96122 0.26758,2.31836 -1.76013,1.76013 -29.57813,8.80273 -29.57813,8.80273 -1.87582,0.56275 0.90358,-4.73368 2.59961,-5.71289 2.52953,-1.46042 22.51057,-5.4082 26.71094,-5.4082 z m 65.26172,1.45898 c 1.6597,0.003 2.80493,0.0797 2.96094,0.25586 0.6082,0.68657 -3.16727,5.98397 -4.34571,6.43946 -1.98435,0.76698 -20.76009,1.65414 -21.73242,1.40039 -1.89197,-0.49377 5.34959,-6.36536 7.11524,-6.97852 1.41472,-0.4913 11.02286,-1.12728 16.00195,-1.11719 z m 76.40039,0.64258 46.875,17.75 c -8.73789,10.524 -43.17167,-6.59296 -62.375,-15.375 4.21003,-1.21512 11.71676,-2.24206 15.5,-2.375 z m -141.85742,4.86524 c 0.50507,0 1.30915,2.00269 0.47851,2.89648 -1.69453,1.82337 -33.24218,10.51563 -33.24218,10.51563 -1.87582,0.56268 -0.012,-4.32343 0.86328,-4.92383 2.40864,-1.6522 27.70002,-8.48828 31.90039,-8.48828 z m 116.99219,1.02539 c 2.16074,-0.0442 5.097,1.49927 6.61523,2.60937 1.61803,8.75 1.64321,17.50001 2,26.25 -13.40875,3.19964 -10.85411,-17.99361 -10.875,-27.625 0.45573,-0.86555 1.27761,-1.21427 2.25977,-1.23437 z m -7.25977,0.35937 c 1.86911,7.41667 1.94775,14.83334 1.5,22.25 -4.45564,0.14574 -8.12204,-0.61052 -10.25,-3.125 -2.27196,-6.14337 -1.6732,-11.9279 -1.375,-17.75 z m -15.75,3 c 1.25198,4.70834 1.74533,10.04167 1,14.75 -2.20833,0.22137 -4.91667,0.20206 -7.125,-1.875 v -11.375 z m 35.125,1.375 7.625,3 c 2.15963,3.23599 2.67398,17.62642 3,27.5 -12.98682,-0.50184 -11.58347,-15.72855 -10.625,-30.5 z m -128.48242,1.38281 c 0.50507,0 0.40508,1.34127 0.043,1.69336 -4.84049,4.70656 -36.27344,15.63282 -36.27344,15.63282 -1.87582,0.56274 -0.80541,-3.54782 -0.0781,-4.41797 2.69362,-3.22279 32.10823,-12.90821 36.3086,-12.90821 z m 58.19922,0.0117 c 1.78944,-0.0343 3.02172,0.0153 3.17773,0.19141 0.6082,0.68657 -2.00711,5.85116 -3.18555,6.30664 -1.98435,0.767 -23.0804,1.34165 -24.05273,1.08789 -1.89197,-0.49377 5.12498,-5.51575 6.89063,-6.12891 1.41471,-0.49129 11.80159,-1.35412 17.16992,-1.45703 z m 83.9082,5.23047 8.5,2.5 c 1.76694,6.45483 2.33715,16.43424 3,26 -3.33914,1.09399 -6.33933,-1.2377 -9.25,-3.625 z m -141.92578,0.18945 c 0.89475,-0.0121 1.39061,0.81641 0.53125,1.44141 -2.0131,1.4641 -33.01367,21.16851 -37.38867,22.82031 -1.83218,0.69173 -0.25782,-5.89258 -0.25782,-5.89258 2.543,-3.25963 32.66055,-17.18907 36.70899,-18.30859 0.14126,-0.0391 0.27843,-0.0588 0.40625,-0.0605 z m 195.2832,4.24024 c 7.42822,0.74921 71.52497,24.64176 85.90625,31.55664 7.15023,3.43805 -17.44336,5.66602 -17.44336,5.66602 0,0 -72.20931,-36.53208 -69,-37.22071 0.11812,-0.0253 0.29749,-0.0261 0.53711,-0.002 z M 383.4668,366.5 c 2.99922,0.0546 6.63902,2.32137 10.1582,3.89453 l 4.125,28.25 c -17.82089,1.18076 -13.2515,-21.01009 -14.875,-32.125 0.19402,-0.0169 0.39185,-0.0232 0.5918,-0.0195 z m -157.08789,0.78711 c 0.15297,-0.022 0.27953,-0.0221 0.37695,0 0.10056,0.0228 0.16962,0.0698 0.20703,0.14258 0.55659,1.08223 -26.63495,24.73771 -36.98828,29.73633 -1.87582,0.56277 -1.68571,-5.1801 -0.83789,-6.0254 1.9412,-1.93531 32.4999,-23.17172 37.24219,-23.85351 z m 52.04882,1.07617 c 1.76015,0.0285 2.97095,0.12077 3.12696,0.29688 0.6082,0.68657 -2.27274,7.05623 -3.45117,7.51172 -1.98436,0.76698 -23.00737,0.83612 -23.69727,0.10546 -2.02589,-2.14555 5.34764,-6.41027 7.11328,-7.02343 1.41473,-0.4913 11.62777,-0.97606 16.9082,-0.89063 z m 120.07227,2.90625 7.75,1 12,34.375 c 2.1445,6.14306 -14.625,-6.125 -14.625,-6.125 z m 21.5,0.36133 c 3.8778,-0.66257 49.40885,27.91034 62.44531,34.88867 4.59243,2.45828 -17.24735,6.94326 -20.11133,4.55664 0,0 -44.59089,-39.05969 -42.33398,-39.44531 z m -3.2793,1.74805 c 1.85292,-0.482 30.20377,28.58021 40.9043,40.01562 3.63156,3.88097 -12.875,0.375 -12.875,0.375 0,0 -28.26114,-36.8393 -28.125,-40.25 0.003,-0.0786 0.0359,-0.12508 0.0957,-0.14062 z m -4.85547,1.20703 c 2.85545,0.12949 16.90891,23.0105 26.25977,37.18359 3.70885,5.62152 -14.25,-2.625 -14.25,-2.625 0,0 -14.62808,-32.95937 -12.25,-34.5 0.0683,-0.0442 0.14812,-0.0628 0.24023,-0.0586 z m -151.1289,6.48828 c 5.61678,-0.005 12.64458,0.30889 13.45312,0.88867 0.74133,0.53955 -1.82807,5.93931 -3.00586,6.39453 -1.98435,0.76872 -23.39485,0.27119 -24.36718,0.0176 -1.89197,-0.49376 5.21482,-6.32044 6.98047,-6.93359 0.70735,-0.24567 3.56938,-0.36394 6.93945,-0.36719 z m -11.35547,11.92383 c 4.48062,-0.0947 17.41492,1.37385 18.46875,2.84961 0.53304,0.74645 -2.05008,4.9566 -3.22852,5.41211 -1.98435,0.76698 -25.50312,1.04393 -25.61718,-0.96485 -0.22543,-3.97013 7.26951,-6.5431 9.03515,-7.15625 0.23579,-0.0819 0.70171,-0.1271 1.3418,-0.14062 z m -2.87695,14.125 c 6.87248,-0.0167 14.37524,0.63843 14.60547,1.17968 0.65283,1.53476 -1.03348,5.34221 -3.18555,6.48438 -2.46131,1.30624 -27.84844,4.09111 -28.11524,2.51758 -0.86073,-5.07655 4.94047,-8.65681 6.71094,-9.25586 1.96295,-0.66415 5.86089,-0.91576 9.98438,-0.92578 z m 3.60351,13.97656 c 2.35813,-0.0381 4.12692,0.10681 4.70703,0.55078 0.72841,0.55744 -0.75711,4.86875 -1.93554,5.32422 -1.98436,0.76698 -28.27653,9.50524 -33.65235,8.41016 -3.30568,-0.6734 3.20701,-10.5177 9.97266,-12.06836 1.45976,-0.33458 13.83381,-2.10259 20.9082,-2.2168 z m 1.42578,12.55273 c 0.26772,-0.0144 0.4278,-10e-4 0.4668,0.043 0.6082,0.68655 -0.62109,3.40821 -0.62109,3.40821 -1.36057,1.63547 -40.39335,17.81865 -43.07032,17.3125 -1.92129,-0.36329 2.13086,-8.98671 7.11329,-11.8418 3.95929,-2.26878 32.09564,-8.70631 36.11132,-8.92188 z m 0.19922,8.12305 c 0.10699,-4e-5 0.17646,0.0221 0.20508,0.0644 0.86607,1.28225 -18.49955,14.26618 -22.21289,17.04493 -5.67643,4.24777 -27.95736,20.4704 -28.92969,20.21679 -1.89197,-0.49375 1.18183,-13.24888 6.23047,-16.51367 1.62437,-1.05042 41.39049,-20.81136 44.70703,-20.8125 z m 3.36524,4.15039 c 0.1575,0.0178 0.27175,0.0737 0.34375,0.16992 1.30657,1.74603 -45.93133,49.56498 -49.875,51.58203 -2.93272,1.50002 -4.38485,-6.28798 -2.8418,-9.78711 2.83564,-6.43028 47.49031,-42.51505 52.37305,-41.96484 z m 1.34961,5.69531 c 0.0509,-0.008 0.091,-0.005 0.12109,0.0117 2.32706,1.31048 -31.26578,65.51411 -33.98242,70.0625 -3.23005,5.40798 -14.93609,-7.74028 -13.64453,-16.21289 0.57399,-3.76545 44.30073,-53.34823 47.50586,-53.86133 z"
       transform="scale(0.26458333)"
       id="path4585"
       inkscape:connector-curvature="0"
       inkscape:export-xdpi="96"
       inkscape:export-ydpi="96" />
    <text
       xml:space="preserve"
       style="font-style:normal;font-weight:normal;font-size:6.68687344px;line-height:125%;font-family:sans-serif;letter-spacing:0px;word-spacing:0px;fill:#1253ff;fill-opacity:1;stroke:none;stroke-width:0.16717184px;stroke-linecap:butt;stroke-linejoin:miter;stroke-opacity:1"
       x="57.597973"
       y="149.78932"
       id="text4602"
       transform="scale(1.0092161,0.99086807)"
       inkscape:export-xdpi="96"
       inkscape:export-ydpi="96"><tspan
         sodipodi:role="line"
         id="tspan4600"
         x="57.597973"
         y="149.78932"
         style="font-style:italic;font-variant:normal;font-weight:bold;font-stretch:normal;font-size:8.2471447px;font-family:Lato;-inkscape-font-specification:'Lato Bold Italic';fill:#1253ff;fill-opacity:1;stroke:none;stroke-width:0.16717184px;stroke-opacity:1">ROBOTIQUE</tspan></text>
  </g>
  <g
     inkscape:groupmode="layer"
     id="layer3"
     inkscape:label="texte"
     style="display:inline">
    <path
       style="fill:#1253ff;fill-opacity:1;fill-rule:evenodd;stroke:none;stroke-width:0.16564523px;stroke-linecap:butt;stroke-linejoin:miter;stroke-opacity:1"
       d="m 73.784762,128.25415 -7.170072,-0.0237 -0.615254,11.95012 7.170073,0.0473 0.04732,-1.79844 -4.638063,-0.0947 0.189309,-3.54954 h 3.620532 l 0.07099,-1.84577 -3.596868,-0.071 0.165645,-2.81597 h 4.685393 z"
       id="path4588"
       inkscape:connector-curvature="0"
       inkscape:export-xdpi="96"
       inkscape:export-ydpi="96" />
    <path
       style="fill:#1253ff;fill-opacity:1;fill-rule:evenodd;stroke:none;stroke-width:0.16564523px;stroke-linecap:butt;stroke-linejoin:miter;stroke-opacity:1"
       d="m 74.116052,140.13328 0.591591,-11.92646 3.194587,-0.0237 4.235785,9.44178 0.378618,-9.44178 2.248043,0.0237 -0.591589,11.99745 -3.265579,0.0473 -4.164795,-9.5601 -0.449608,9.60742 z"
       id="path4590"
       inkscape:connector-curvature="0"
       sodipodi:nodetypes="ccccccccccc"
       inkscape:export-xdpi="96"
       inkscape:export-ydpi="96" />
    <path
       style="fill:#1253ff;fill-opacity:1;fill-rule:evenodd;stroke:none;stroke-width:0.16564523px;stroke-linecap:butt;stroke-linejoin:miter;stroke-opacity:1"
       d="m 92.502674,128.20689 -2.886821,0.0236 -4.803712,12.04486 2.413503,-0.0475 1.183134,-3.26535 h 3.691754 l 0.6862,3.26535 2.79235,-0.0236 z m -1.585601,1.60922 0.875784,5.32426 h -2.768733 z"
       id="path4594"
       inkscape:connector-curvature="0"
       inkscape:export-xdpi="96"
       inkscape:export-ydpi="96" />
    <path
       style="fill:#1253ff;fill-opacity:1;fill-rule:evenodd;stroke:none;stroke-width:0.16564523px;stroke-linecap:butt;stroke-linejoin:miter;stroke-opacity:1"
       d="m 103.12764,128.04117 c -4.175848,-0.43701 -7.201968,2.80565 -7.139568,7.05699 0.0766,5.21947 5.813808,6.38534 8.819678,4.70383 l 0.0947,-2.0824 c -2.72455,1.14954 -5.800198,1.14815 -6.249128,-2.7535 -0.25417,-2.20906 0.99681,-5.38702 4.498018,-5.05549 z"
       id="path4598"
       inkscape:connector-curvature="0"
       sodipodi:nodetypes="csccscc"
       inkscape:export-xdpi="96"
       inkscape:export-ydpi="96" />
  </g>
  <g
     inkscape:groupmode="layer"
     id="layer2"
     inkscape:label="trous" />
</svg>
